<?xml version="1.0" encoding="UTF-8"?>
<svg width="512px" height="512px" viewBox="0 0 512 512" version="1.1" xmlns="http://www.w3.org/2000/svg" xmlns:xlink="http://www.w3.org/1999/xlink">
    <!-- Generator: Sketch 42 (36781) - http://www.bohemiancoding.com/sketch -->
    <title>icon</title>
    <desc>Created with Sketch.</desc>
    <defs></defs>
    <g id="Page-1" stroke="none" stroke-width="1" fill="none" fill-rule="evenodd">
        <g id="icon" transform="translate(256.000000, 256.000000) rotate(-90.000000) translate(-256.000000, -256.000000) " fill-rule="nonzero">
            <g id="Layer_1">
                <g id="Group" transform="translate(300.000000, 300.000000)" fill="#FFD200">
                    <path d="M47.463,188.453 L47.463,155.293 C47.463,142.289 36.92,131.746 23.916,131.746 C10.912,131.746 0.369,142.289 0.369,155.293 L0.369,188.453 C0.369,201.457 10.912,212 23.916,212 C36.92,212 47.463,201.457 47.463,188.453 Z" id="Shape"></path>
                    <path d="M188.455,0.37 L155.293,0.368 C155.291,0.368 155.293,0.368 155.291,0.368 C142.288,0.368 131.744,10.911 131.744,23.913 C131.744,36.917 142.285,47.462 155.289,47.462 L188.451,47.464 L188.453,47.464 C201.456,47.464 212,36.921 212,23.919 C212,10.913 201.459,0.372 188.455,0.37 Z" id="Shape"></path>
                    <path d="M140.262,163.81 C146.287,163.81 152.315,161.51 156.913,156.912 C166.107,147.718 166.109,132.809 156.915,123.612 L133.465,100.162 C124.269,90.966 109.361,90.966 100.163,100.16 C90.969,109.356 90.967,124.266 100.161,133.462 L123.611,156.912 C128.209,161.512 134.235,163.81 140.262,163.81 Z" id="Shape"></path>
                </g>
                <g id="Group" fill="#FFD200">
                    <path d="M211.63,23.547 C211.63,10.543 201.087,0 188.083,0 C175.079,0 164.536,10.543 164.536,23.547 L164.536,56.707 C164.536,69.711 175.079,80.254 188.083,80.254 C201.087,80.254 211.63,69.711 211.63,56.707 L211.63,23.547 Z" id="Shape"></path>
                    <path d="M56.706,211.631 C69.709,211.631 80.253,201.088 80.253,188.086 C80.253,175.082 69.712,164.537 56.708,164.537 L23.549,164.535 C23.547,164.535 23.549,164.535 23.547,164.535 C10.544,164.536 0,175.078 0,188.081 C0,201.087 10.541,211.628 23.545,211.63 L56.706,211.631 C56.706,211.631 56.704,211.631 56.706,211.631 Z" id="Shape"></path>
                    <path d="M55.086,55.087 C45.892,64.281 45.89,79.19 55.084,88.387 L78.534,111.837 C83.134,116.435 89.16,118.735 95.185,118.735 C101.21,118.735 107.238,116.435 111.836,111.839 C121.03,102.643 121.032,87.733 111.838,78.537 L88.388,55.087 C79.189,45.892 64.28,45.89 55.086,55.087 Z" id="Shape"></path>
                </g>
                <g id="Group" transform="translate(38.000000, 38.000000)" fill="#0275D8">
                    <path d="M118.098,435.637 C149.544,435.637 179.113,423.389 201.348,401.153 C201.354,401.148 267.95,334.55 267.95,334.55 C277.146,325.356 277.146,310.446 267.95,301.25 C258.756,292.054 243.846,292.054 234.65,301.25 L168.061,367.839 C154.705,381.195 136.966,388.543 118.099,388.543 C99.228,388.543 81.491,381.195 68.148,367.853 C40.606,340.309 40.606,295.493 68.148,267.949 L134.748,201.349 C143.944,192.155 143.944,177.245 134.748,168.049 C125.554,158.853 110.644,158.853 101.448,168.049 L34.848,234.649 C-11.056,280.553 -11.056,355.246 34.848,401.153 C57.084,423.39 86.65,435.637 118.098,435.637 Z" id="Shape"></path>
                    <path d="M401.15,34.847 C378.915,12.611 349.35,0.363 317.902,0.363 C317.9,0.363 317.904,0.363 317.9,0.363 C286.454,0.363 256.887,12.611 234.65,34.847 L234.648,34.849 C234.648,34.849 234.648,34.849 234.646,34.851 L168.046,101.451 C158.85,110.645 158.85,125.555 168.046,134.751 C172.644,139.349 178.67,141.649 184.695,141.649 C190.721,141.649 196.748,139.349 201.344,134.751 L267.944,68.151 L267.946,68.149 C267.946,68.149 267.946,68.149 267.948,68.147 C281.29,54.805 299.03,47.457 317.899,47.457 C336.768,47.457 354.505,54.805 367.847,68.147 C395.391,95.691 395.391,140.507 367.847,168.051 L301.247,234.651 C292.051,243.847 292.051,258.755 301.247,267.951 C305.845,272.549 311.871,274.849 317.896,274.849 C323.922,274.849 329.949,272.549 334.545,267.951 L401.145,201.351 C447.056,155.445 447.056,80.751 401.15,34.847 Z" id="Shape"></path>
                </g>
                <g id="Group" transform="translate(72.000000, 72.000000)" fill="#0275D8">
                    <path d="M0.847,367.155 C23.085,389.39 52.65,401.637 84.098,401.637 C115.544,401.637 145.113,389.389 167.348,367.153 C167.354,367.148 233.95,300.55 233.95,300.55 C243.146,291.356 243.146,276.446 233.95,267.25 C224.756,258.054 209.846,258.054 200.65,267.25 L134.061,333.839 C120.705,347.195 102.966,354.543 84.099,354.543 C65.228,354.543 47.491,347.195 34.148,333.853 C33.983,333.688 33.832,333.516 33.671,333.351 L0.371,366.651 C0.533,366.817 0.682,366.99 0.847,367.155 Z" id="Shape"></path>
                    <path d="M366.649,0.371 L333.349,33.671 C333.514,33.833 333.686,33.983 333.85,34.148 C361.394,61.692 361.394,106.508 333.85,134.052 L267.25,200.652 C258.054,209.846 258.054,224.756 267.25,233.952 C271.848,238.55 277.874,240.85 283.899,240.85 C289.924,240.85 295.952,238.55 300.548,233.952 L367.148,167.352 C413.054,121.448 413.054,46.754 367.148,0.849 C366.987,0.683 366.814,0.533 366.649,0.371 Z" id="Shape"></path>
                </g>
            </g>
        </g>
    </g>
</svg>